<svg aria-hidden="true" style="position:absolute;width:0;height:0;overflow:hidden" xmlns="http://www.w3.org/2000/svg"><defs><symbol id="icon-choose" viewBox="0 0 52 32"><path d="M26 32 .02 2h51.96L26 32z"/></symbol><symbol id="icon-location" viewBox="0 0 22 32"><path d="M11.2 0C5.024 0 0 4.992 0 11.123 0 18.832 11.21 32 11.21 32S22.4 18.451 22.4 11.123C22.4 4.989 17.376 0 11.2 0zm3.379 14.381c-.931.925-2.157 1.386-3.379 1.386s-2.448-.461-3.379-1.386c-.863-.857-1.398-2.045-1.398-3.357s.534-2.5 1.397-3.357c.902-.896 2.102-1.389 3.379-1.389s2.477.493 3.379 1.389a4.733 4.733 0 0 1 0 6.714z"/></symbol><symbol id="icon-search" viewBox="0 0 32 32"><path d="M4.024 4.024A13.604 13.604 0 0 1 13.701 0h.04-.002a13.65 13.65 0 0 1 9.715 4.024 13.608 13.608 0 0 1 4.027 9.68v.037-.002.035c0 3.453-1.284 6.607-3.4 9.01l.013-.015 7.632 7.629a.938.938 0 1 1-1.328 1.328l-7.629-7.629a13.571 13.571 0 0 1-8.988 3.381h-.043.002-.035a13.607 13.607 0 0 1-9.677-4.023l-.001-.001A13.608 13.608 0 0 1 0 13.774v-.037.002a13.65 13.65 0 0 1 4.024-9.715zm1.328 18.104c2.148 2.143 5.113 3.468 8.387 3.468s6.239-1.325 8.387-3.468c2.144-2.148 3.469-5.113 3.469-8.388s-1.326-6.24-3.47-8.388a11.788 11.788 0 0 0-8.367-3.469h-.018.001-.021A11.788 11.788 0 0 0 5.355 5.35c-2.145 2.148-3.471 5.114-3.471 8.389s1.326 6.241 3.471 8.389z"/></symbol></defs></svg>